<svg width="373.301" height="71.201" viewBox="0 0 373.301 71.201" xmlns="http://www.w3.org/2000/svg"><g id="svgGroup" stroke-linecap="round" fill-rule="evenodd" font-size="9pt" stroke="#00000000" stroke-width="0.25mm" fill="#0B558E" style="stroke:#00000000;stroke-width:0.25mm;fill:#1077c6"><path d="M 67.4 70.001 L 59 70.001 L 59 20.401 L 66.6 20.401 L 67.1 29.301 Q 69.5 24.601 74 21.901 A 19.076 19.076 0 0 1 82.794 19.243 A 23.165 23.165 0 0 1 84.2 19.201 A 23.464 23.464 0 0 1 90.301 19.953 A 17.155 17.155 0 0 1 98.25 24.551 Q 103.5 29.901 103.5 41.001 L 103.5 70.001 L 95.1 70.001 L 95.1 41.901 Q 95.1 37.077 93.845 33.744 A 12.11 12.11 0 0 0 91.9 30.301 A 10.227 10.227 0 0 0 86.364 26.872 Q 84.525 26.401 82.3 26.401 A 14.396 14.396 0 0 0 76.148 27.694 A 14.199 14.199 0 0 0 71.65 31.051 A 15.113 15.113 0 0 0 68.398 36.896 Q 67.712 39.123 67.498 41.788 A 31.374 31.374 0 0 0 67.4 44.301 L 67.4 70.001 Z M 136 40.101 L 149.4 40.101 A 25.03 25.03 0 0 0 149.212 36.925 Q 148.826 33.916 147.65 31.901 A 11.475 11.475 0 0 0 145.673 29.359 A 9.5 9.5 0 0 0 143.1 27.601 A 14.106 14.106 0 0 0 138.206 26.35 A 16.923 16.923 0 0 0 136.9 26.301 Q 132 26.301 128.45 28.651 A 9.808 9.808 0 0 0 124.616 33.61 A 13.991 13.991 0 0 0 124 35.901 L 115.4 35.901 A 17.982 17.982 0 0 1 116.536 30.961 A 14.934 14.934 0 0 1 119 26.801 A 19.763 19.763 0 0 1 126.263 21.401 A 23.122 23.122 0 0 1 126.85 21.151 Q 131.6 19.201 136.9 19.201 A 33.517 33.517 0 0 1 141.714 19.526 Q 144.248 19.894 146.342 20.68 A 16.4 16.4 0 0 1 149 21.951 A 16.994 16.994 0 0 1 153.868 26.233 A 16.018 16.018 0 0 1 155.7 29.301 A 23.425 23.425 0 0 1 157.7 37.098 A 28.235 28.235 0 0 1 157.8 39.501 L 157.8 54.701 Q 157.8 58.003 158.517 59.871 A 6.144 6.144 0 0 0 158.7 60.301 A 3.14 3.14 0 0 0 159.942 61.627 Q 161.147 62.368 163.3 62.601 L 163.3 70.001 Q 160 70.001 157.3 69.151 A 10.611 10.611 0 0 1 153.38 66.961 A 10.347 10.347 0 0 1 152.75 66.351 A 9.926 9.926 0 0 1 150.962 63.678 A 13.804 13.804 0 0 1 150.1 61.201 A 21.848 21.848 0 0 1 143.919 67.84 A 25.473 25.473 0 0 1 143.25 68.301 Q 138.9 71.201 132.8 71.201 A 26.531 26.531 0 0 1 127.062 70.601 A 22.307 22.307 0 0 1 123.5 69.501 A 15.392 15.392 0 0 1 118.934 66.692 A 14.18 14.18 0 0 1 116.85 64.351 A 13.078 13.078 0 0 1 114.652 58.945 A 17.72 17.72 0 0 1 114.4 55.901 Q 114.4 50.101 117.4 46.651 Q 120.4 43.201 125.35 41.651 A 34.343 34.343 0 0 1 133.543 40.175 A 40.201 40.201 0 0 1 136 40.101 Z M 181.8 61.701 L 181 70.001 L 173.4 70.001 L 173.4 0.001 L 181.8 0.001 L 181.8 28.601 A 20.422 20.422 0 0 1 185.094 24.822 A 28.095 28.095 0 0 1 188.65 22.101 Q 192.706 19.458 198.797 19.223 A 31.327 31.327 0 0 1 200 19.201 A 27.8 27.8 0 0 1 206.695 19.973 A 21.925 21.925 0 0 1 213 22.601 Q 218.5 26.001 221.5 31.901 A 27.595 27.595 0 0 1 224.263 41.208 A 34.422 34.422 0 0 1 224.5 45.301 A 31.395 31.395 0 0 1 223.551 53.151 A 26.627 26.627 0 0 1 221.5 58.601 Q 218.5 64.501 212.95 67.851 A 23.075 23.075 0 0 1 204.398 70.873 A 29.921 29.921 0 0 1 199.9 71.201 A 25.399 25.399 0 0 1 193.8 70.495 A 20.91 20.91 0 0 1 189.05 68.701 Q 184.3 66.201 181.8 61.701 Z M 47.8 47.101 L 8.3 47.101 A 23.011 23.011 0 0 0 9.192 52.281 A 19.305 19.305 0 0 0 10.65 55.851 Q 12.7 59.701 16.25 61.901 A 14.721 14.721 0 0 0 22.85 64.036 A 18.181 18.181 0 0 0 24.4 64.101 A 18.65 18.65 0 0 0 28.345 63.704 A 13.273 13.273 0 0 0 33.1 61.701 Q 36.6 59.301 38.2 55.201 L 46.5 55.201 Q 45.2 59.801 42.2 63.401 Q 39.2 67.001 34.75 69.101 A 21.495 21.495 0 0 1 28.955 70.854 A 28.708 28.708 0 0 1 24.4 71.201 A 25.597 25.597 0 0 1 16.114 69.887 A 23.354 23.354 0 0 1 11.95 68.001 Q 6.4 64.801 3.2 58.951 Q 0 53.101 0 45.201 A 33.825 33.825 0 0 1 0.671 38.317 A 25.977 25.977 0 0 1 3.05 31.551 Q 6.1 25.701 11.65 22.451 A 23.574 23.574 0 0 1 20.37 19.487 A 30.32 30.32 0 0 1 24.6 19.201 A 26.658 26.658 0 0 1 30.959 19.928 A 21.175 21.175 0 0 1 36.8 22.301 Q 42 25.401 44.95 30.651 A 23.211 23.211 0 0 1 47.865 40.994 A 27.78 27.78 0 0 1 47.9 42.401 L 47.9 44.601 A 18.928 18.928 0 0 1 47.894 45.057 Q 47.876 45.787 47.808 46.975 A 120.403 120.403 0 0 1 47.8 47.101 Z M 304.1 47.101 L 264.6 47.101 A 23.011 23.011 0 0 0 265.492 52.281 A 19.305 19.305 0 0 0 266.95 55.851 Q 269 59.701 272.55 61.901 A 14.721 14.721 0 0 0 279.15 64.036 A 18.181 18.181 0 0 0 280.7 64.101 A 18.65 18.65 0 0 0 284.645 63.704 A 13.273 13.273 0 0 0 289.4 61.701 Q 292.9 59.301 294.5 55.201 L 302.8 55.201 Q 301.5 59.801 298.5 63.401 Q 295.5 67.001 291.05 69.101 A 21.495 21.495 0 0 1 285.255 70.854 A 28.708 28.708 0 0 1 280.7 71.201 A 25.597 25.597 0 0 1 272.414 69.887 A 23.354 23.354 0 0 1 268.25 68.001 Q 262.7 64.801 259.5 58.951 Q 256.3 53.101 256.3 45.201 A 33.825 33.825 0 0 1 256.971 38.317 A 25.977 25.977 0 0 1 259.35 31.551 Q 262.4 25.701 267.95 22.451 A 23.574 23.574 0 0 1 276.67 19.487 A 30.32 30.32 0 0 1 280.9 19.201 A 26.658 26.658 0 0 1 287.259 19.928 A 21.175 21.175 0 0 1 293.1 22.301 Q 298.3 25.401 301.25 30.651 A 23.211 23.211 0 0 1 304.165 40.994 A 27.78 27.78 0 0 1 304.2 42.401 L 304.2 44.601 A 18.928 18.928 0 0 1 304.194 45.057 Q 304.176 45.787 304.108 46.975 A 120.403 120.403 0 0 1 304.1 47.101 Z M 337.3 70.001 L 315.8 70.001 L 315.8 0.001 L 337.3 0.001 A 59.64 59.64 0 0 1 345.638 0.549 Q 350.071 1.176 353.754 2.519 A 30.168 30.168 0 0 1 357.65 4.251 Q 365.6 8.501 369.45 16.351 Q 373.3 24.201 373.3 35.201 A 50.785 50.785 0 0 1 372.564 44.072 Q 371.617 49.411 369.45 53.801 Q 365.6 61.601 357.65 65.801 A 33.103 33.103 0 0 1 349.842 68.672 Q 346.059 69.575 341.624 69.864 A 66.444 66.444 0 0 1 337.3 70.001 Z M 324.2 7.001 L 324.2 63.001 L 337.1 63.001 A 50.127 50.127 0 0 0 343.492 62.619 Q 349.174 61.887 353.15 59.751 Q 359.2 56.501 361.9 50.251 A 31.134 31.134 0 0 0 363.904 43.48 Q 364.6 39.669 364.6 35.201 A 49.248 49.248 0 0 0 364.019 27.358 Q 363.354 23.247 361.93 19.983 A 20.652 20.652 0 0 0 358 13.951 A 20.026 20.026 0 0 0 350.201 8.991 Q 346.966 7.809 342.954 7.329 A 49.339 49.339 0 0 0 337.1 7.001 L 324.2 7.001 Z M 244.6 70.001 L 236.2 70.001 L 236.2 0.001 L 244.6 0.001 L 244.6 70.001 Z M 199 63.901 Q 204.1 63.901 207.9 61.551 A 15.984 15.984 0 0 0 213.575 55.474 A 19.118 19.118 0 0 0 213.85 54.951 A 19.87 19.87 0 0 0 215.785 48.556 A 25.389 25.389 0 0 0 216 45.201 A 23.609 23.609 0 0 0 215.352 39.57 A 19.874 19.874 0 0 0 213.95 35.651 Q 211.9 31.401 208.1 28.951 A 15.181 15.181 0 0 0 202.242 26.752 A 20.156 20.156 0 0 0 199 26.501 Q 194 26.501 190.15 28.851 Q 186.3 31.201 184.15 35.401 A 19.267 19.267 0 0 0 182.303 41.197 A 25.503 25.503 0 0 0 182 45.201 A 22.27 22.27 0 0 0 182.821 51.329 A 19.613 19.613 0 0 0 184.1 54.651 Q 186.2 58.901 190 61.401 A 15.112 15.112 0 0 0 196.337 63.724 A 19.539 19.539 0 0 0 199 63.901 Z M 8.4 40.601 L 39.6 40.601 A 17.665 17.665 0 0 0 38.813 35.983 A 12.989 12.989 0 0 0 35 30.101 A 15.07 15.07 0 0 0 25.944 26.36 A 19.72 19.72 0 0 0 24.4 26.301 Q 18.4 26.301 13.75 29.951 A 13.568 13.568 0 0 0 9.079 37.023 A 19.712 19.712 0 0 0 8.4 40.601 Z M 264.7 40.601 L 295.9 40.601 A 17.665 17.665 0 0 0 295.113 35.983 A 12.989 12.989 0 0 0 291.3 30.101 A 15.07 15.07 0 0 0 282.244 26.36 A 19.72 19.72 0 0 0 280.7 26.301 Q 274.7 26.301 270.05 29.951 A 13.568 13.568 0 0 0 265.379 37.023 A 19.712 19.712 0 0 0 264.7 40.601 Z M 149.4 46.701 L 149.4 46.601 L 136.7 46.601 A 29.125 29.125 0 0 0 131.876 46.988 A 25.477 25.477 0 0 0 130.1 47.351 A 11.77 11.77 0 0 0 127.498 48.297 A 9.11 9.11 0 0 0 125.1 50.051 Q 123.309 51.889 123.207 55.106 A 12.416 12.416 0 0 0 123.2 55.501 Q 123.2 60.001 126.4 62.051 A 12.78 12.78 0 0 0 131.16 63.858 A 17.153 17.153 0 0 0 134.1 64.101 A 16.264 16.264 0 0 0 138.034 63.647 A 12.308 12.308 0 0 0 142.5 61.551 Q 145.9 59.001 147.65 55.001 Q 149.4 51.001 149.4 46.701 Z" vector-effect="non-scaling-stroke"/></g></svg>